<?xml version="1.0" encoding="utf-8"?>
<!-- Generator: Adobe Illustrator 15.0.0, SVG Export Plug-In . SVG Version: 6.00 Build 0)  -->
<!DOCTYPE svg PUBLIC "-//W3C//DTD SVG 1.1//EN" "http://www.w3.org/Graphics/SVG/1.1/DTD/svg11.dtd">
<svg version="1.1" xmlns="http://www.w3.org/2000/svg" xmlns:xlink="http://www.w3.org/1999/xlink" x="0px" y="0px" width="600px"
	 height="600px" viewBox="-9 78.5 600 600" enable-background="new -9 78.5 600 600" xml:space="preserve">
<g id="multiple_open" display="none">
	<g display="inline">
		<g display="none">
			<path display="inline" fill="#EFECAF" d="M8.13,541.069c-0.121-0.048-0.494-0.491-0.494-1.227V259.936
				C26.07,239.562,143.157,136.842,220.51,70.041c77.454,67.742,194.676,171.872,212.99,192.355v277.447
				c0,0.72-0.357,1.158-0.512,1.227H8.13z"/>
		</g>
		<g>
			<path fill="#444444" d="M-24.007,553.863c-2.954,0-5.357-2.837-5.357-6.324V260.49c0-2.057,0.858-3.987,2.295-5.163l0.164-0.141
				L179.558,66.784c4.048-3.695,8.892-5.648,14.007-5.648c5.04,0,10.015,2.006,14.01,5.649l206.819,188.707
				c1.322,1.213,2.085,3.03,2.085,4.978v4h0.021v283.069c0,3.487-2.403,6.324-5.357,6.324H-24.007z M-6.381,541.191h399.885
				l-155.71-122.26v6.474l-40.88,37.017c-0.992,0.933-2.164,1.417-3.358,1.417c-1.17,0-2.286-0.451-3.227-1.305l-44.817-40.606
				L-6.381,541.191z M-18.668,535.814L136.615,413.88L2.223,292.153l-0.146-0.109c-0.26-0.196-0.582-0.506-0.832-0.754l-0.129-0.122
				l-19.785-17.922V535.814z M385.876,291.274l-0.132,0.145c-0.188,0.208-0.39,0.388-0.616,0.55l-0.182,0.131L250.523,413.856
				l155.284,121.935l-0.001-262.57L385.876,291.274z M193.568,449.681l172.907-156.638H20.661L193.568,449.681z M193.571,73.758
				c-2.731,0-5.399,1.069-7.512,3.011l-201.341,183.72l21.983,19.907H380.42l21.996-19.919L201.074,76.76
				C198.973,74.828,196.304,73.758,193.571,73.758z"/>
		</g>
		<g>
			<path fill="#FFFFFF" d="M78.13,581.069c-0.121-0.048-0.494-0.491-0.494-1.227V299.936
				C96.07,279.562,213.157,176.842,290.51,110.041c77.454,67.742,194.676,171.872,212.99,192.355v277.447
				c0,0.72-0.357,1.158-0.512,1.227H78.13z"/>
		</g>
		<g>
			<path fill="#444444" d="M72.993,594.863c-2.954,0-5.357-2.837-5.357-6.324V301.49c0-2.057,0.858-3.987,2.295-5.163l0.164-0.141
				l206.463-188.401c4.048-3.695,8.892-5.648,14.007-5.648c5.04,0,10.015,2.006,14.01,5.649l206.819,188.707
				c1.322,1.213,2.085,3.03,2.085,4.978v4h0.021v283.069c0,3.487-2.403,6.324-5.357,6.324H72.993z M90.619,582.191h399.885
				l-155.71-122.26v6.474l-40.88,37.017c-0.992,0.933-2.164,1.417-3.358,1.417c-1.17,0-2.286-0.451-3.227-1.305l-44.817-40.606
				L90.619,582.191z M78.332,576.814L233.615,454.88L99.223,333.153l-0.146-0.109c-0.26-0.196-0.582-0.506-0.832-0.754l-0.129-0.122
				l-19.785-17.922V576.814z M482.876,332.274l-0.132,0.145c-0.188,0.208-0.39,0.388-0.616,0.55l-0.182,0.131L347.523,454.856
				l155.284,121.935l-0.001-262.57L482.876,332.274z M290.568,490.681l172.907-156.638H117.661L290.568,490.681z M290.571,114.758
				c-2.731,0-5.399,1.069-7.512,3.011L81.718,301.489l21.983,19.907H477.42l21.996-19.919L298.074,117.76
				C295.973,115.828,293.304,114.758,290.571,114.758z"/>
		</g>
	</g>
</g>
<g id="open_copy">
	<g>
		<g>
			<path fill="#444444" d="M72.993,594.863c-2.954,0-5.357-2.837-5.357-6.324V301.49c0-2.057,0.858-3.987,2.295-5.163l0.164-0.141
				l206.463-188.401c4.048-3.695,8.892-5.648,14.007-5.648c5.04,0,10.015,2.006,14.01,5.649l206.819,188.707
				c1.322,1.213,2.085,3.03,2.085,4.978v4h0.021v283.069c0,3.487-2.403,6.324-5.357,6.324H72.993z M90.619,582.191h399.885
				l-155.71-122.26v6.474l-40.88,37.017c-0.992,0.933-2.164,1.417-3.358,1.417c-1.17,0-2.286-0.451-3.227-1.305l-44.817-40.606
				L90.619,582.191z M78.332,576.814L233.615,454.88L99.223,333.153l-0.146-0.109c-0.26-0.196-0.582-0.506-0.832-0.754l-0.129-0.122
				l-19.785-17.922V576.814z M482.876,332.274l-0.132,0.145c-0.188,0.208-0.39,0.388-0.616,0.55l-0.182,0.131L347.523,454.856
				l155.284,121.935l-0.001-262.57L482.876,332.274z M290.568,490.681l172.907-156.638H117.661L290.568,490.681z M290.571,114.758
				c-2.731,0-5.399,1.069-7.512,3.011L81.718,301.489l21.983,19.907H477.42l21.996-19.919L298.074,117.76
				C295.973,115.828,293.304,114.758,290.571,114.758z"/>
		</g>
	</g>
</g>
<g id="New" display="none">
	<g display="inline">
		<path fill="#EFE77F" d="M78.13,524.64c-2.436,0-4.494-2.748-4.494-6V224.747c0-3.252,2.058-6,4.494-6h424.876
			c2.437,0,4.494,2.748,4.494,6V518.64c0,3.252-2.058,6-4.494,6H78.13z"/>
	</g>
	<g display="inline">
		<path fill="#8E6F39" d="M78.701,524.604c-2.793,0-5.065-2.975-5.065-6.63V225.377c0-3.391,2-6.265,4.573-6.599l424.227,0.003
			c2.793,0,5.064,2.974,5.064,6.63v292.597c0,3.656-2.271,6.631-5.064,6.631h0.001L78.701,524.604z M95.774,511.379h389.533
			L328.694,379.482l-35.363,29.807c-0.865,0.759-1.853,1.162-2.813,1.163c-0.918,0-1.833-0.364-2.646-1.053l-35.5-29.904
			L95.774,511.379z M337.961,371.711l159.372,134.253V237.458L337.961,371.711z M83.739,505.964l159.395-134.271L83.739,237.422
			V505.964z M290.567,396.079l54.301-45.76l-0.042-0.003l140.476-118.309H95.771l159.012,133.932
			c0.168,0.145,0.367,0.305,0.568,0.461L290.567,396.079z"/>
	</g>
</g>
<g id="multiple_new" display="none">
	<g display="inline">
		<path fill="#EFE77F" d="M1.13,490.64c-2.436,0-4.494-2.748-4.494-6V190.747c0-3.252,2.058-6,4.494-6h424.876
			c2.437,0,4.494,2.748,4.494,6V484.64c0,3.252-2.058,6-4.494,6H1.13z"/>
	</g>
	<g display="inline">
		<path fill="#8E6F39" d="M1.702,489.604c-2.747,0-5.066-3.036-5.066-6.63V190.377c0-3.376,2.047-6.26,4.571-6.597l424.23,0.001
			c2.745,0,5.063,3.036,5.063,6.63v292.597c0,3.594-2.318,6.631-5.063,6.631h0.001L1.702,489.604z M18.773,476.379h389.535
			L251.695,344.483l-35.425,29.858c-0.828,0.726-1.779,1.11-2.751,1.11c-0.933,0-1.824-0.354-2.648-1.052l-35.5-29.904
			L18.773,476.379z M260.961,336.711l159.373,134.253V202.458L260.961,336.711z M6.739,470.964l159.395-134.271L6.739,202.422
			V470.964z M213.567,361.078l54.361-45.809l-0.044-0.002L408.3,197.007H18.771l158.999,133.92c0.185,0.159,0.368,0.306,0.554,0.451
			L213.567,361.078z"/>
	</g>
	<g display="inline">
		<path fill="#EFE77F" d="M78.13,524.64c-2.436,0-4.494-2.748-4.494-6V224.747c0-3.252,2.058-6,4.494-6h424.876
			c2.437,0,4.494,2.748,4.494,6V518.64c0,3.252-2.058,6-4.494,6H78.13z"/>
	</g>
	<g display="inline">
		<path fill="#8E6F39" d="M78.702,524.604c-2.747,0-5.066-3.036-5.066-6.63V225.377c0-3.376,2.047-6.26,4.571-6.597l424.23,0.001
			c2.745,0,5.063,3.036,5.063,6.63v292.597c0,3.594-2.318,6.631-5.063,6.631h0.001L78.702,524.604z M95.773,511.379h389.535
			L328.696,379.483l-35.425,29.859c-0.828,0.726-1.779,1.109-2.751,1.109c-0.933,0.001-1.824-0.354-2.648-1.052l-35.5-29.904
			L95.773,511.379z M337.961,371.711l159.373,134.253V237.458L337.961,371.711z M83.739,505.964l159.395-134.271L83.739,237.422
			V505.964z M290.567,396.078l54.361-45.809l-0.044-0.002L485.3,232.007H95.771l158.999,133.92c0.185,0.159,0.368,0.306,0.554,0.451
			L290.567,396.078z"/>
	</g>
</g>
<g id="Reply" display="none">
	<g display="inline">
		<polygon fill="#5D22BA" points="159.427,510.552 329.031,671.49 329.031,596.05 527.156,596.05 527.156,427.927 330.066,427.927 
			330.066,350.333 		"/>
	</g>
</g>
<g id="Tr">
	<g>
		<polygon fill="#2F98CC" points="415.156,511.27 245.552,350.332 245.552,425.771 47.427,425.771 47.427,593.895 244.518,593.895 
			244.518,671.488 		"/>
	</g>
</g>
</svg>
