<?xml version="1.0" encoding="utf-8"?>
<!-- Generator: Adobe Illustrator 15.0.0, SVG Export Plug-In . SVG Version: 6.00 Build 0)  -->
<!DOCTYPE svg PUBLIC "-//W3C//DTD SVG 1.1//EN" "http://www.w3.org/Graphics/SVG/1.1/DTD/svg11.dtd">
<svg version="1.1" xmlns="http://www.w3.org/2000/svg" xmlns:xlink="http://www.w3.org/1999/xlink" x="0px" y="0px" width="600px"
	 height="600px" viewBox="-9 78.5 600 600" enable-background="new -9 78.5 600 600" xml:space="preserve">
<g id="multiple_open">
	<g>
		<g>
			<g display="none">
				<path display="inline" fill="#EFECAF" d="M57.062,594.388c-0.121-0.048-0.494-0.491-0.494-1.227V313.254
					C75.002,292.88,192.089,190.16,269.442,123.359c77.453,67.74,194.671,171.868,212.99,192.355v277.447
					c0,0.72-0.357,1.158-0.512,1.227H57.062z"/>
			</g>
			<g>
				<path fill="#444444" d="M24.925,607.182c-2.954,0-5.357-2.837-5.357-6.324V313.808c0-2.057,0.858-3.987,2.295-5.163l0.164-0.141
					L228.49,120.103c4.048-3.695,8.892-5.648,14.007-5.648c5.04,0,10.015,2.006,14.01,5.649l206.82,188.707
					c1.322,1.213,2.085,3.03,2.085,4.978v4h0.02v283.069c0,3.487-2.403,6.324-5.357,6.324H24.925z M42.551,594.51h399.886
					l-155.71-122.26v6.474l-40.88,37.017c-0.992,0.933-2.164,1.417-3.358,1.417c-1.17,0-2.286-0.451-3.227-1.305l-44.817-40.606
					L42.551,594.51z M30.264,589.133l155.283-121.935L51.156,345.471l-0.146-0.109c-0.26-0.196-0.582-0.506-0.832-0.754
					l-0.129-0.122l-19.785-17.922V589.133z M434.809,344.593l-0.132,0.145c-0.187,0.206-0.389,0.386-0.617,0.55l-0.182,0.131
					L299.455,467.175l155.284,121.935V326.54L434.809,344.593z M242.5,502.999l172.907-156.638H69.593L242.5,502.999z
					 M242.503,127.077c-2.731,0-5.399,1.069-7.512,3.011L33.65,313.807l21.983,19.907h373.719l21.997-19.919L250.006,130.078
					C247.905,128.146,245.237,127.077,242.503,127.077z"/>
			</g>
			<g>
				<path fill="#FFFFFF" d="M127.062,634.388c-0.121-0.048-0.494-0.491-0.494-1.227V353.254
					c18.433-20.373,135.52-123.093,212.874-189.895c77.452,67.739,194.672,171.868,212.99,192.355v277.447
					c0,0.72-0.357,1.158-0.512,1.227H127.062z"/>
			</g>
			<g>
				<path fill="#444444" d="M121.925,648.182c-2.954,0-5.357-2.837-5.357-6.324V354.808c0-2.057,0.858-3.987,2.295-5.163
					l0.164-0.141L325.49,161.103c4.049-3.695,8.893-5.648,14.008-5.648c5.039,0,10.015,2.006,14.01,5.649l206.819,188.707
					c1.322,1.213,2.085,3.03,2.085,4.978v4h0.02v283.069c0,3.487-2.403,6.324-5.357,6.324H121.925z M139.551,635.51h399.886
					l-155.71-122.26v6.474l-40.881,37.017c-0.991,0.933-2.163,1.417-3.357,1.417c-1.17,0-2.286-0.451-3.228-1.306l-44.816-40.605
					L139.551,635.51z M127.264,630.133l155.283-121.935L148.156,386.471l-0.146-0.109c-0.26-0.196-0.582-0.506-0.832-0.754
					l-0.129-0.122l-19.785-17.922V630.133z M531.809,385.593l-0.132,0.145c-0.187,0.206-0.389,0.386-0.617,0.55l-0.182,0.131
					L396.455,508.175l155.283,121.935V367.54L531.809,385.593z M339.5,543.999l172.906-156.638H166.593L339.5,543.999z
					 M339.503,168.077c-2.732,0-5.4,1.069-7.513,3.012L130.65,354.807l21.983,19.907h373.719l21.997-19.919L347.006,171.078
					C344.905,169.146,342.237,168.077,339.503,168.077z"/>
			</g>
		</g>
	</g>
</g>
<g id="open_copy" display="none">
	<g display="inline">
		<g>
			<path fill="#444444" d="M73.425,624.863c-2.954,0-5.357-2.837-5.357-6.324V331.49c0-2.057,0.858-3.987,2.295-5.163l0.164-0.142
				L276.99,137.785c4.048-3.695,8.891-5.648,14.007-5.648c5.04,0,10.015,2.006,14.01,5.649l206.819,188.707
				c1.322,1.213,2.085,3.03,2.085,4.978v4h0.02v283.069c0,3.487-2.403,6.324-5.357,6.324H73.425z M91.051,612.191h399.886
				l-155.71-122.26v6.474l-40.881,37.017c-0.992,0.933-2.164,1.417-3.358,1.417c-1.17,0-2.286-0.451-3.227-1.305l-44.817-40.606
				L91.051,612.191z M78.764,606.814L234.047,484.88L99.656,363.153l-0.146-0.109c-0.263-0.198-0.582-0.506-0.831-0.752l-0.13-0.124
				l-19.785-17.922V606.814z M483.309,362.275l-0.132,0.145c-0.187,0.206-0.389,0.386-0.617,0.55l-0.182,0.131L347.955,484.856
				l155.283,121.935V344.222L483.309,362.275z M291,520.681l172.907-156.638H118.093L291,520.681z M291.003,144.759
				c-2.731,0-5.399,1.069-7.512,3.011L82.15,331.489l21.983,19.908h373.719l21.996-19.919L298.506,147.76
				C296.405,145.828,293.737,144.759,291.003,144.759z"/>
		</g>
	</g>
</g>
<g id="New" display="none">
	<g display="inline">
		<path fill="#EFE77F" d="M78.562,531.446c-2.436,0-4.494-2.748-4.494-6V231.554c0-3.252,2.058-6,4.494-6h424.875
			c2.437,0,4.494,2.748,4.494,6v293.893c0,3.252-2.058,6-4.494,6H78.562z"/>
	</g>
	<g display="inline">
		<path fill="#8E6F39" d="M79.134,531.411c-2.793,0-5.065-2.975-5.065-6.63V232.184c0-3.391,2-6.265,4.573-6.599l424.227,0.003
			c2.793,0,5.064,2.974,5.064,6.63v292.597c0,3.656-2.271,6.631-5.064,6.631h0.001L79.134,531.411z M96.206,518.186H485.74
			L329.128,386.289l-35.366,29.807c-0.865,0.759-1.853,1.162-2.813,1.163c-0.918,0-1.833-0.364-2.646-1.053l-35.5-29.904
			L96.206,518.186z M338.394,378.518l159.372,134.253V244.265L338.394,378.518z M84.171,512.771L243.565,378.5L84.171,244.229
			V512.771z M290.999,402.885l54.326-45.779l-0.044-0.003l140.453-118.289H96.203l159.012,133.932
			c0.168,0.145,0.367,0.305,0.568,0.461L290.999,402.885z"/>
	</g>
</g>
<g id="multiple_new" display="none">
	<g display="inline">
		<g>
			<path fill="#EFE77F" d="M40.062,514.946c-2.436,0-4.494-2.748-4.494-6V215.054c0-3.252,2.058-6,4.494-6h424.875
				c2.437,0,4.494,2.748,4.494,6v293.893c0,3.252-2.058,6-4.494,6H40.062z"/>
		</g>
		<g>
			<path fill="#8E6F39" d="M40.634,513.911c-2.747,0-5.066-3.036-5.066-6.63V214.684c0-3.376,2.047-6.26,4.571-6.597l424.23,0.001
				c2.744,0,5.063,3.036,5.063,6.63v292.597c0,3.594-2.318,6.631-5.063,6.631h0.001L40.634,513.911z M57.705,500.686H447.24
				L290.627,368.79l-35.425,29.859c-0.828,0.726-1.779,1.109-2.751,1.109c-0.933,0.001-1.824-0.354-2.648-1.052l-35.5-29.904
				L57.705,500.686z M299.894,361.018l159.372,134.253V226.765L299.894,361.018z M45.671,495.271L205.065,361L45.671,226.729
				V495.271z M252.499,385.385l54.361-45.809l-0.044-0.002l140.414-118.26H57.703l158.999,133.92
				c0.185,0.159,0.368,0.306,0.554,0.451L252.499,385.385z"/>
		</g>
		<g>
			<path fill="#EFE77F" d="M117.062,548.946c-2.436,0-4.494-2.748-4.494-6V249.054c0-3.252,2.058-6,4.494-6h424.875
				c2.437,0,4.494,2.748,4.494,6v293.893c0,3.252-2.058,6-4.494,6H117.062z"/>
		</g>
		<g>
			<path fill="#8E6F39" d="M117.634,548.911c-2.747,0-5.066-3.036-5.066-6.63V249.684c0-3.376,2.047-6.26,4.571-6.597l424.23,0.001
				c2.744,0,5.063,3.036,5.063,6.63v292.597c0,3.594-2.318,6.631-5.063,6.631h0.001L117.634,548.911z M134.705,535.686H524.24
				L367.627,403.789l-35.425,29.858c-0.828,0.727-1.779,1.11-2.751,1.11c-0.934,0.001-1.825-0.354-2.65-1.053l-35.498-29.903
				L134.705,535.686z M376.894,396.018l159.372,134.253V261.765L376.894,396.018z M122.671,530.271L282.065,396L122.671,261.729
				V530.271z M329.498,420.385l54.307-45.763l-0.044-0.003l140.471-118.305H134.703l158.999,133.92
				c0.185,0.159,0.368,0.307,0.554,0.451L329.498,420.385z"/>
		</g>
	</g>
</g>
<g id="Reply" display="none">
	<g display="inline">
		<polygon fill="#5D22BA" points="159.427,510.552 329.031,671.49 329.031,596.05 527.156,596.05 527.156,427.927 330.066,427.927 
			330.066,350.333 		"/>
	</g>
</g>
<g id="Tr" display="none">
	<g display="inline">
		<polygon fill="#2F98CC" points="415.156,511.27 245.552,350.332 245.552,425.771 47.427,425.771 47.427,593.895 244.518,593.895 
			244.518,671.488 		"/>
	</g>
</g>
</svg>
